<svg xmlns="http://www.w3.org/2000/svg" viewBox="0 0 512 512">
<defs>
<linearGradient id="bg" x1="0" y1="0" x2="1" y2="1"><stop stop-color="#172554"/><stop offset="1" stop-color="#7c2d12"/></linearGradient>
<radialGradient id="glow"><stop stop-color="#fde68a" stop-opacity=".5"/><stop offset="1" stop-color="#fde68a" stop-opacity="0"/></radialGradient>
</defs>
<rect width="512" height="512" rx="112" fill="url(#bg)"/>
<circle cx="100" cy="100" r="120" fill="#38bdf8" opacity=".12"/><circle cx="410" cy="420" r="150" fill="#facc15" opacity=".1"/><circle cx="256" cy="270" r="190" fill="url(#glow)"/>
<circle cx="126" cy="210" r="62" fill="#7c3f20"/><circle cx="386" cy="210" r="62" fill="#7c3f20"/><circle cx="126" cy="210" r="34" fill="#d2a679"/><circle cx="386" cy="210" r="34" fill="#d2a679"/>
<circle cx="256" cy="230" r="128" fill="#9a542d"/><ellipse cx="256" cy="276" rx="88" ry="68" fill="#d2a679"/>
<circle cx="214" cy="222" r="15" fill="#111827"/><circle cx="298" cy="222" r="15" fill="#111827"/><circle cx="209" cy="216" r="5" fill="#fff"/><circle cx="293" cy="216" r="5" fill="#fff"/>
<ellipse cx="256" cy="265" rx="17" ry="11" fill="#5c2c0c"/><path d="M220 294 Q256 325 292 294" fill="none" stroke="#5c2c0c" stroke-width="10" stroke-linecap="round"/>
<path d="M145 285 Q72 240 88 140" fill="none" stroke="#7c3f20" stroke-width="38" stroke-linecap="round"/><path d="M367 285 Q440 240 424 140" fill="none" stroke="#7c3f20" stroke-width="38" stroke-linecap="round"/>
<g transform="translate(54 88) rotate(-18)"><path d="M12 22 Q72 76 124 22" fill="none" stroke="#facc15" stroke-width="25" stroke-linecap="round"/><path d="M18 18 Q72 65 118 18" fill="none" stroke="#fde68a" stroke-width="7" stroke-linecap="round"/><circle cx="12" cy="22" r="7" fill="#a16207"/><circle cx="124" cy="22" r="7" fill="#a16207"/></g>
<g transform="translate(334 92) rotate(18)"><path d="M12 22 Q72 76 124 22" fill="none" stroke="#facc15" stroke-width="25" stroke-linecap="round"/><path d="M18 18 Q72 65 118 18" fill="none" stroke="#fde68a" stroke-width="7" stroke-linecap="round"/><circle cx="12" cy="22" r="7" fill="#a16207"/><circle cx="124" cy="22" r="7" fill="#a16207"/></g>
<rect x="92" y="390" width="328" height="70" rx="35" fill="#0f172a" stroke="#38bdf8" stroke-width="5"/><text x="256" y="435" text-anchor="middle" font-family="Arial,sans-serif" font-size="31" font-weight="900" fill="#f8fafc">BLOCK BREAKER</text>
</svg>